# xmcd
#
# Track frame offsets: 
#        150
#        13363
#        23033
#        35748
#        45365
#        57846
#        67707
#        80140
#        89009
#        101721
#        113022
#        125065
#        138045
#        148695
#        161267
#        171041
#        182375
#        194685
#        205910
#        216753
#        228703
#        242014
#        251812
#        264271
#        284545
#
# Disc length: 3955 seconds
#
# Revision: 1
# Processed by: cddbd v1.5.2PL0 Copyright (c) Steve Scherf et al.
# Submitted via: ExactAudioCopy v1.0b1
#
DISCID=6b0f7119
DTITLE=Magic Sam - The Essential Magic Sam
DYEAR=2000
DGENRE=Blues
TTITLE0=All Your Love (mono)
TTITLE1=Love Me With A Feeling (mono)
TTITLE2=Everthing Gonna Be Alright (mono)
TTITLE3=Look Whatcha Done (mono)
TTITLE4=All Night Long (mono)
TTITLE5=All My Whole Life (mono)
TTITLE6=Easy Baby (mono)
TTITLE7=21 Days In Jail (mono)
TTITLE8=Love Me This Way (mono)
TTITLE9=Magic Rocker (mono)
TTITLE10=Mr. Charlie (mono)
TTITLE11=My Love Is Your Love (mono)
TTITLE12=Square Dance Rock (Part 1) (mono)
TTITLE13=Square Dance Rock (Part 2) (mono)
TTITLE14=Every Night About This Time (mono)
TTITLE15=Do The Camel Walk (mono)
TTITLE16=You Don't Have To Work (mono)
TTITLE17=Blue Light Boogie (mono)
TTITLE18=Out Of Bad Luck (mono)
TTITLE19=She Belongs To Me (mono)
TTITLE20=All Your Love (alt) (mono)
TTITLE21=Love Me With A Feeling (alt) (mono)
TTITLE22=Everything Gonna Be Alright (alt) (mono)
TTITLE23=Easy Baby (alt) (mono)
TTITLE24=21 Days In Jail (alt) (mono)
EXTD=YEAR: 2000 ID3G: 0
EXTT0=
EXTT1=
EXTT2=
EXTT3=
EXTT4=
EXTT5=
EXTT6=
EXTT7=
EXTT8=
EXTT9=
EXTT10=
EXTT11=
EXTT12=
EXTT13=
EXTT14=
EXTT15=
EXTT16=
EXTT17=
EXTT18=
EXTT19=
EXTT20=
EXTT21=
EXTT22=
EXTT23=
EXTT24=
PLAYORDER=
